mtllib materials.mtl
v -0.04962829 -0.1713665 -0.04199779
v -0.05691794 -0.1713665 0.02259219
v -0.05691794 -0.1811153 0.02259219
v -0.04962829 -0.1811153 -0.04199779
v -0.004626215 -0.1713665 0.06120014
v -0.0046262 -0.1811153 0.06120014
v 0.05495512 -0.1713665 0.03521824
v 0.05495514 -0.1811153 0.03521824
v 0.06224477 -0.1713665 -0.02937174
v 0.06224479 -0.1811153 -0.02937174
v 0.009953082 -0.1713665 -0.06797969
v 0.009953082 -0.1811153 -0.06797969
v 0.09766023 -0.001366496 -0.04481572
v 0.01428609 -0.001366496 -0.1063724
v 0.08603758 -0.001366496 0.05816686
v -0.008959204 -0.001366496 0.09959251
v -0.09233341 -0.001366496 0.03803581
v -0.08071074 -0.001366496 -0.06494677
v 0.1037742 -0.0008881688 -0.05625796
v 0.09702622 -0.001366496 0.05940706
v -0.01347926 -0.001816511 0.1092722
v -0.104097 -0.003029525 0.0382542
v 0.01769409 -0.002646983 -0.1185951
v 0.006619677 0.03737342 -0.1066869
v 0.09766026 0.008633435 -0.04481572
v 0.0142861 0.008633435 -0.1063724
v 0.09702623 0.03863347 0.059407
v 0.0859046 0.03834796 0.05395627
v 0.0877363 0.03924894 -0.05000782
v 0.1037742 0.03911173 -0.05625808
v 0.01769409 0.03735298 -0.1185951
v -0.08071074 0.03863347 -0.06494683
v -0.08810902 -0.002745748 -0.07464743
v -0.008959204 0.03863347 0.09959245
v -0.01347928 0.03818345 0.1092722
v -0.09233341 0.03863347 0.03803575
v -0.08810905 0.03725415 -0.07464749
v -0.104097 0.03697038 0.03825414
v 0.08603761 0.008633435 0.05816686
v -0.008959189 0.008633435 0.09959251
v -0.09233341 0.008633435 0.03803581
v -0.08071071 0.008633435 -0.06494677
v 0.05653214 -0.01822519 -0.004232407
v 0.05536121 -0.006992221 0.01227361
v 0.06586383 0.007416248 0.003213167
v 0.06703477 -0.003816783 -0.01329285
v 0.03955205 -0.01008785 -0.01097476
v 0.05005467 0.004320621 -0.02003521
v 0.04888374 0.01555359 -0.003529191
v 0.03838111 0.001145184 0.005531251
v -0.0430671 0.006108224 0.004388452
v -0.05684271 0.0002003312 0.01762962
v -0.07035407 0.01205766 0.008863389
v -0.04832783 -0.008875132 -0.007769883
v -0.06183919 0.002982199 -0.01653612
v -0.07561481 -0.002925694 -0.003294945
v -0.06210345 -0.01478302 0.005471289
v -0.05729914 0.01561856 -0.005382299
v -0.02235715 -0.003243029 -0.0389204
v -0.02717935 0.003664255 -0.03353184
v -0.01998028 0.0102936 -0.03558725
v -0.01515809 0.003386378 -0.04097581
v -0.02734914 -0.0003548861 -0.04708976
v -0.02015008 0.006274462 -0.04914516
v -0.02497227 0.01318175 -0.0437566
v -0.03217134 0.006552339 -0.0417012
v 0.01711057 -0.001016319 0.03236407
v 0.01506345 0.006104708 0.03907973
v 0.02264212 0.0115999 0.03556305
v 0.02468923 0.004478872 0.0288474
v 0.01091595 0.003353357 0.02584237
v 0.01849462 0.008848548 0.02232569
v 0.0164475 0.01596957 0.02904135
v 0.008868843 0.01047438 0.03255802
v -0.03778145 0.0005115867 0.04349792
v -0.04146603 0.007446587 0.04968905
v -0.03379384 0.01347584 0.04750133
v -0.03010927 0.006540775 0.04131025
v -0.04303136 0.004455388 0.03595579
v -0.03535917 0.01048464 0.03376806
v -0.03904375 0.01741964 0.03995919
v -0.04671595 0.01139045 0.04214686
v 0.03646454 -0.00255686 0.05282974
v 0.03570984 0.00428009 0.06008828
v 0.04290238 0.009695113 0.05573565
v 0.04365708 0.002858102 0.04847711
v 0.02955818 0.00233537 0.04750353
v 0.03675072 0.007750392 0.0431509
v 0.03599602 0.01458734 0.05040944
v 0.02880348 0.00917238 0.05476207
v 0.01816103 -0.003560364 -0.0344705
v 0.01680928 0.003435254 -0.02745378
v 0.02401687 0.008988798 -0.03160214
v 0.02536862 0.001993179 -0.0386188
v 0.01136224 0.0009362102 -0.0402633
v 0.01781391 0.00740093 -0.04397553
v 0.01721808 0.01348537 -0.03739494
v 0.0100105 0.007931828 -0.03324664
v -0.05195248 -0.002838671 0.02880222
v -0.0476988 0.003586411 0.03517592
v -0.0450246 0.009422243 0.02750838
v -0.04927832 0.00299716 0.02113461
v -0.06059858 0.002127349 0.02956641
v -0.05792439 0.007963181 0.02189887
v -0.0536707 0.01438826 0.02827257
v -0.05634487 0.008552432 0.03594017
v 0.06567496 0.00278455 0.02426571
v 0.06989713 0.008767486 0.03107584
v 0.06213091 0.01502961 0.03038931
v 0.05790874 0.009046674 0.02357912
v 0.06099959 -0.002214491 0.03155613
v 0.05323337 0.004047632 0.0308696
v 0.05745554 0.01003057 0.03767973
v 0.06522176 0.003768444 0.03836632
v 0.05103661 -0.0003151894 -0.0531323
v 0.05770887 0.006124437 -0.049389
v 0.05695179 0.01171029 -0.0576489
v 0.05027954 0.00527066 -0.06139219
v 0.04362664 0.004912615 -0.04891777
v 0.04286955 0.01049846 -0.05717766
v 0.04954182 0.01693809 -0.05343437
v 0.05029888 0.01135224 -0.04517448
v -0.05192336 0.005124152 -0.04728174
v -0.05074203 0.01230156 -0.04041958
v -0.05783966 0.0177449 -0.04489112
v -0.059021 0.01056749 -0.05175328
v -0.05886802 0.0007818937 -0.04154444
v -0.06596565 0.006225228 -0.04601598
v -0.06478432 0.01340264 -0.03915381
v -0.05768669 0.007959306 -0.03468227
v 0.006040424 -0.002807498 -0.06778193
v 0.01063818 0.004777968 -0.06316435
v 0.007965922 0.01091844 -0.07059091
v 0.003368169 0.003333032 -0.07520843
v -0.002428323 -0.000626862 -0.0629316
v -0.005100578 0.005513608 -0.07035816
v -0.0005028248 0.01309907 -0.06574059
v 0.00216943 0.006958544 -0.05831409
v 0.001820803 -5.298853E-05 0.06295627
v 0.000725463 0.006043375 0.0708071
v -0.00330472 0.01299095 0.06484979
v -0.00220938 0.006894588 0.05699903
v -0.007265329 -0.003869534 0.06465226
v -0.01129551 0.003078043 0.05869496
v -0.01239085 0.009174407 0.06654578
v -0.008360669 0.00222683 0.07250303
vn -0.9936916 -1.191221E-06 -0.1121483
vn -0.5939687 4.16823E-07 0.8044882
vn 0.3997217 -1.641616E-06 0.9166365
vn 0.9936916 9.745203E-07 0.1121483
vn 0.5939689 1.498088E-06 -0.8044881
vn -0.3997217 -3.251779E-06 -0.9166366
vn 1.764537E-07 -1 2.216372E-08
vn 0.5827876 -0.1931193 -0.7893439
vn 0.9749857 -0.1931185 0.1100373
vn 0.3921972 -0.1931176 0.8993815
vn -0.5827875 -0.1931177 0.7893443
vn -0.9749857 -0.1931188 -0.1100373
vn -0.3921968 -0.1931195 -0.8993813
vn 0.02211747 -0.9993064 -0.02995665
vn -1.457554E-08 -1 -1.188769E-07
vn -0.02540453 -0.9979782 -0.05825912
vn 0.02550116 -0.9990779 -0.0345396
vn 0.1402502 -0.9899896 0.01582883
vn 0.05157337 -0.9916416 0.1182673
vn -0.5874283 -0.1479913 0.7956297
vn -0.1121494 1.490421E-06 0.9936914
vn -0.02964863 0.9995273 0.008139824
vn -0.3570122 -0.2037675 -0.9116036
vn 0.9983026 -1.406439E-07 0.05824146
vn 0.881987 1.567202E-06 0.471274
vn -0.01146468 0.9998577 -0.01237835
vn -0.9506606 -0.1901202 -0.2451504
vn 0.5865302 -2.650786E-06 -0.8099273
vn 0.9632573 -8.515691E-08 0.2685804
vn 0.02448185 0.9994786 0.02105215
vn -0.7951431 9.538722E-07 0.606422
vn -0.3835966 -8.559149E-09 -0.9235008
vn -0.9060808 -6.110585E-07 -0.4231047
vn -0.01119111 0.9995016 -0.02951708
vn 0.1115364 -0.1044036 -0.9882609
vn 0.4113091 1.30034E-06 0.9114959
vn -0.01856174 -1.562158E-06 -0.9998278
vn -0.02550113 0.9990779 0.0345396
vn 0.9060808 6.637692E-07 0.4231048
vn -0.6168458 6.691549E-07 0.787084
vn 0.7951432 -9.549923E-07 -0.6064218
vn -0.1402551 0.9899889 -0.01582917
vn 0.01856123 1.449187E-06 0.9998278
vn -0.9901217 -1.742622E-07 -0.1402109
vn -0.01856194 -1.322692E-06 -0.9998277
vn -0.1354273 0.9784148 0.15609
vn -0.6168461 1.409062E-06 0.7870839
vn 0.1354223 -0.9784163 -0.1560847
vn -0.9060801 -9.687876E-07 -0.4231063
vn 0.4113093 1.474147E-06 0.9114959
vn 0.4400887 -1.411835E-06 -0.8979544
vn 0.0008134112 -0.9999736 -0.007219707
vn -0.8819872 -1.567986E-06 -0.4712736
vn 0.0104021 0.9999346 0.004741238
vn 0.9983025 2.945781E-07 0.05824151
vn -0.7322792 5.136191E-09 -0.6810047
vn 0.5865295 -2.45116E-07 -0.8099279
vn -0.0458799 -0.9947548 0.09142096
vn -0.04525543 0.9932591 -0.1067162
vn -0.7951433 9.021489E-07 0.6064217
vn -0.3835961 -1.38711E-06 -0.923501
vn -0.1579775 0.9872425 -0.01988894
vn 0.1579714 -0.9872435 0.01988831
vn 0.04525258 -0.9932597 0.1067116
vn -0.9927614 -0.02119563 -0.118218
vn -0.3997217 -2.125244E-06 -0.9166366
vn 0.5939685 -1.308727E-06 -0.8044884
vn 0.9936914 7.35157E-07 0.1121486
vn 0.3997214 2.085734E-06 0.9166368
vn -1.764537E-07 1 -2.216372E-08
vn -0.440101 0.09321406 0.893097
vn -0.4302328 -0.1285389 -0.8935198
vn -0.5714338 -0.04627658 0.8193424
vn 0.3570124 0.2037675 0.9116036
vn -0.9501207 -0.3112761 -0.01943752
vn 0.7242552 0.1487913 0.6732872
vn 0.4293461 0.1243166 0.8945432
vn -0.002785467 0.9995729 -0.02908993
vn 0.8490052 -0.4068684 0.3371177
vn -0.8490052 0.4068684 -0.3371177
vn -0.5251309 -0.7204223 0.4530225
vn 0.5251309 0.7204223 -0.4530225
vn 0.05854657 -0.5616493 -0.8253013
vn -0.05854657 0.5616493 0.8253013
vn 0.263037 0.749167 0.6079147
vn -0.263037 -0.749167 -0.6079147
vn 0.6755682 -0.5928661 0.438312
vn -0.65896 0.5997381 -0.4539668
vn 0.6753877 0.3365474 -0.6561915
vn -0.6887809 -0.2953955 0.6620591
vn 0.2601455 0.85339 0.4517188
vn 0.4991995 -0.2888108 0.8169384
vn -0.4991995 0.2888108 -0.8169384
vn -0.7199064 -0.6629393 0.2055394
vn 0.7199064 0.6629393 -0.2055394
vn 0.4822186 -0.6907243 -0.5388556
vn -0.4822186 0.6907243 0.5388556
vn 0.6194613 -0.4369684 0.6521705
vn -0.6194613 0.4369684 -0.6521705
vn -0.7578661 -0.5495172 0.3516674
vn 0.7578661 0.5495172 -0.3516674
vn 0.2047114 -0.7121022 -0.6715682
vn -0.2047114 0.7121022 0.6715682
vn 0.524991 -0.3943847 0.7542182
vn -0.524991 0.3943847 -0.7542182
vn -0.7672184 -0.6029233 0.2187682
vn 0.7672184 0.6029233 -0.2187682
vn 0.368457 -0.6935014 -0.6191085
vn -0.368457 0.6935014 0.6191085
vn 0.6906358 -0.4892242 0.532618
vn -0.6906358 0.4892242 -0.532618
vn -0.7192541 -0.5414975 0.4352632
vn 0.7192541 0.5414975 -0.4352632
vn 0.07547006 -0.6836961 -0.725854
vn -0.07547006 0.6836961 0.725854
vn 0.6798783 -0.4496603 0.579285
vn -0.74127 0.4580432 -0.4906273
vn -0.7207589 -0.5553547 0.4148346
vn 0.7207589 0.5553547 -0.4148346
vn 0.06822798 -0.6523766 -0.7548176
vn -0.1351739 0.6995618 0.7016703
vn 0.8646087 -0.4966 -0.07642147
vn -0.8646087 0.4966 0.07642147
vn -0.2674177 -0.5835851 0.766757
vn 0.2674177 0.5835851 -0.766757
vn -0.4253699 -0.6425084 -0.6373723
vn 0.4253699 0.6425084 0.6373723
vn 0.4675369 0.4999038 -0.7290443
vn -0.4675369 -0.4999038 0.7290443
vn 0.7766223 -0.6262143 0.06865519
vn -0.7766223 0.6262143 -0.06865519
vn -0.422217 -0.5982908 -0.6810147
vn 0.422217 0.5982908 0.6810147
vn 0.740998 -0.5227814 -0.4214518
vn -0.740998 0.5227814 0.4214518
vn 0.07570699 -0.5585805 0.8259881
vn -0.07570699 0.5585805 -0.8259881
vn -0.6672259 -0.6439624 -0.3743289
vn 0.6672259 0.6439624 0.3743289
vn 0.6944655 0.4342255 -0.5737299
vn -0.6944655 -0.4342255 0.5737299
vn 0.709762 -0.5443294 0.4471505
vn -0.709762 0.5443294 -0.4471505
vn -0.1181339 -0.7177422 -0.6862147
vn 0.1181339 0.7177422 0.6862147
vn 0.8468747 -0.2180608 -0.4850287
vn -0.8468747 0.2180608 0.4850287
vn 0.2672267 -0.61405 0.7426524
vn -0.2672267 0.61405 -0.7426524
vn -0.4597752 -0.7585461 -0.4617517
vn 0.4597752 0.7585461 0.4617517
vn 0.9086134 0.3816534 -0.1695951
vn -0.9086134 -0.3816534 0.1695951
vn 0.4030188 -0.6947563 0.5957261
vn -0.4030188 0.6947563 -0.5957261
vn 0.1095336 -0.6096348 -0.7850783
vn -0.1095336 0.6096348 0.7850783
usemtl mat8
f 4//1 3//1 2//1 1//1
f 3//2 6//2 5//2 2//2
f 6//3 8//3 7//3 5//3
f 8//4 10//4 9//4 7//4
f 10//5 12//5 11//5 9//5
f 12//6 4//6 1//6 11//6
f 12//7 10//7 8//7 6//7 3//7 4//7
f 14//8 13//8 9//8 11//8
f 13//9 15//9 7//9 9//9
f 15//10 16//10 5//10 7//10
f 16//11 17//11 2//11 5//11
f 17//12 18//12 1//12 2//12
f 18//13 14//13 11//13 1//13
f 19//14 13//14 14//14
f 19//15 20//15 15//15 13//15
f 21//16 16//16 15//16
f 21//17 17//17 16//17
f 22//18 18//18 17//18
f 23//19 14//19 18//19
f 26//20 25//20 24//20
f 20//21 27//21 15//21
f 27//22 29//22 28//22
f 30//23 13//23 29//23
f 27//24 20//24 19//24
f 19//25 30//25 13//25
f 30//26 31//26 24//26
f 23//27 14//27 24//27
f 30//28 19//28 23//28
f 23//29 31//29 14//29
f 31//30 32//30 24//30
f 33//31 18//31 32//31
f 31//32 23//32 33//32
f 21//33 34//33 16//33
f 35//34 27//34 28//34 34//34
f 20//35 15//35 28//35
f 27//36 35//36 20//36
f 22//37 36//37 17//37
f 35//38 34//38 36//38
f 35//39 21//39 16//39 34//39
f 35//40 22//40 21//40
f 33//41 37//41 32//41 18//41
f 38//42 36//42 32//42
f 38//43 22//43 17//43 36//43
f 38//44 37//44 33//44 22//44
f 22//45 38//45 36//45
f 36//46 38//46 35//46
f 35//47 38//47 22//47
f 21//48 22//48 17//48
f 21//49 35//49 34//49
f 35//50 21//50 20//50
f 28//51 27//51 20//51
f 15//52 20//52 21//52
f 30//53 19//53 13//53
f 27//54 30//54 29//54
f 19//55 30//55 27//55
f 24//56 31//56 23//56
f 23//57 31//57 30//57
f 14//58 23//58 19//58
f 31//59 37//59 32//59
f 32//60 37//60 33//60
f 33//61 37//61 31//61
f 32//62 37//62 38//62
f 22//63 33//63 18//63
f 18//64 33//64 23//64
f 25//65 39//65 28//65
f 39//66 40//66 34//66
f 40//67 41//67 36//67 34//67
f 41//68 42//68 32//68 36//68
f 42//69 26//69 32//69
f 27//71 28//71 15//71
f 34//72 28//72 39//72
f 25//73 29//73 24//73
f 30//74 29//74 13//74
f 28//75 29//75 25//75
f 31//76 24//76 14//76
f 26//77 24//77 32//77
f 24//78 29//78 30//78
usemtl mat20
f 42//70 41//70 40//70 39//70 25//70 26//70
usemtl mat19
f 46//79 45//79 44//79 43//79
f 50//80 49//80 48//80 47//80
f 44//81 50//81 47//81 43//81
f 48//82 49//82 45//82 46//82
f 47//83 48//83 46//83 43//83
f 45//84 49//84 50//84 44//84
f 53//85 52//85 51//85
f 57//86 56//86 55//86 54//86
f 52//87 57//87 54//87 51//87
f 55//88 56//88 53//88 58//88
f 54//89 55//89 58//89 51//89
f 53//90 56//90 57//90 52//90
f 51//91 58//91 53//91
f 62//92 61//92 60//92 59//92
f 66//93 65//93 64//93 63//93
f 60//94 66//94 63//94 59//94
f 64//95 65//95 61//95 62//95
f 63//96 64//96 62//96 59//96
f 61//97 65//97 66//97 60//97
f 70//98 69//98 68//98 67//98
f 74//99 73//99 72//99 71//99
f 68//100 74//100 71//100 67//100
f 72//101 73//101 69//101 70//101
f 71//102 72//102 70//102 67//102
f 69//103 73//103 74//103 68//103
f 78//104 77//104 76//104 75//104
f 82//105 81//105 80//105 79//105
f 76//106 82//106 79//106 75//106
f 80//107 81//107 77//107 78//107
f 79//108 80//108 78//108 75//108
f 77//109 81//109 82//109 76//109
f 86//110 85//110 84//110 83//110
f 90//111 89//111 88//111 87//111
f 84//112 90//112 87//112 83//112
f 88//113 89//113 85//113 86//113
f 87//114 88//114 86//114 83//114
f 85//115 89//115 90//115 84//115
f 94//116 93//116 92//116 91//116
f 98//117 97//117 96//117 95//117
f 92//118 98//118 95//118 91//118
f 96//119 97//119 93//119 94//119
f 95//120 96//120 94//120 91//120
f 93//121 97//121 98//121 92//121
f 102//122 101//122 100//122 99//122
f 106//123 105//123 104//123 103//123
f 100//124 106//124 103//124 99//124
f 104//125 105//125 101//125 102//125
f 103//126 104//126 102//126 99//126
f 101//127 105//127 106//127 100//127
f 110//128 109//128 108//128 107//128
f 114//129 113//129 112//129 111//129
f 108//130 114//130 111//130 107//130
f 112//131 113//131 109//131 110//131
f 111//132 112//132 110//132 107//132
f 109//133 113//133 114//133 108//133
f 118//134 117//134 116//134 115//134
f 122//135 121//135 120//135 119//135
f 116//136 122//136 119//136 115//136
f 120//137 121//137 117//137 118//137
f 119//138 120//138 118//138 115//138
f 117//139 121//139 122//139 116//139
f 126//140 125//140 124//140 123//140
f 130//141 129//141 128//141 127//141
f 124//142 130//142 127//142 123//142
f 128//143 129//143 125//143 126//143
f 127//144 128//144 126//144 123//144
f 125//145 129//145 130//145 124//145
f 134//146 133//146 132//146 131//146
f 138//147 137//147 136//147 135//147
f 132//148 138//148 135//148 131//148
f 136//149 137//149 133//149 134//149
f 135//150 136//150 134//150 131//150
f 133//151 137//151 138//151 132//151
f 142//152 141//152 140//152 139//152
f 146//153 145//153 144//153 143//153
f 140//154 146//154 143//154 139//154
f 144//155 145//155 141//155 142//155
f 143//156 144//156 142//156 139//156
f 141//157 145//157 146//157 140//157
