# This file uses centimeters as units for non-parametric coordinates.

mtllib Table_01.mtl
g default
v -217.303101 -112.892769 166.665046
v -206.061401 -124.134498 166.665046
v -217.303101 -112.892769 180.337074
v -206.061401 -124.134498 180.337074
v 217.303101 -112.892769 166.665046
v 206.061401 -124.134498 166.665046
v 217.303101 -112.892769 180.337074
v 206.061401 -124.134498 180.337074
v -217.303101 80.222023 180.337074
v -206.061401 91.463753 180.337074
v -217.303101 80.222023 166.665046
v -206.061401 91.463753 166.665046
v 206.061401 91.463753 180.337074
v 217.303101 80.222023 180.337074
v 217.303101 80.222023 166.665046
v 206.061401 91.463753 166.665046
v -192.335815 84.283318 166.665046
v -202.828735 73.790474 166.665046
v 192.335815 84.283318 166.665046
v 202.828735 73.790474 166.665046
v 202.828735 -106.461219 166.665046
v 192.335815 -116.954063 166.665046
v -192.335815 -116.954063 166.665046
v -202.828735 -106.461219 166.665046
v -0.000000 -16.335373 166.665046
v -206.061401 91.463753 -0.119744
v -217.303101 80.222023 -0.119744
v -192.335815 84.283318 -0.119744
v -202.828735 73.790474 -0.119744
v 206.061401 91.463753 -0.119744
v 217.303101 80.222023 -0.119744
v 202.828735 73.790474 -0.119744
v 192.335815 84.283318 -0.119744
v 217.303101 -112.892769 -0.119744
v 206.061401 -124.134498 -0.119744
v 192.335815 -116.954063 -0.119744
v 202.828735 -106.461219 -0.119744
v -206.061401 -124.134498 -0.119744
v -217.303101 -112.892769 -0.119744
v -202.828735 -106.461219 -0.119744
v -192.335815 -116.954063 -0.119744
v -0.000000 -16.335373 180.337074
vt 0.375000 0.263035
vt 0.625000 0.263036
vt 0.375000 0.486964
vt 0.625000 0.763036
vt 0.625000 0.986965
vt 0.618533 1.000000
vt 0.381467 1.000000
vt 0.375000 0.986964
vt 0.381467 0.250000
vt 0.618533 0.000000
vt 0.138035 0.250000
vt 0.138036 -0.000000
vt 0.361965 -0.000000
vt 0.381467 0.750000
vt 0.618533 0.500000
vt 0.638035 0.250000
vt 0.861965 -0.000000
vt 0.861965 0.250000
vt 0.381467 0.000000
vt 0.361965 0.250000
vt 0.638035 -0.000000
vt 0.618533 0.250000
vt 0.381467 0.500000
vt 0.375000 0.763035
vt 0.625000 0.486964
vt 0.618533 0.750000
vt 0.440733 0.812500
vt 0.437500 0.819018
vt 0.559267 0.812500
vt 0.562500 0.819018
vt 0.562500 0.930982
vt 0.559267 0.937500
vt 0.440733 0.937500
vt 0.437500 0.930982
vt 0.500000 0.875000
vt 0.375000 0.763035
vt 0.381467 0.750000
vt 0.440733 0.812500
vt 0.437500 0.819018
vt 0.618533 0.750000
vt 0.625000 0.763036
vt 0.562500 0.819018
vt 0.559267 0.812500
vt 0.625000 0.986965
vt 0.618533 1.000000
vt 0.559267 0.937500
vt 0.562500 0.930982
vt 0.381467 1.000000
vt 0.375000 0.986964
vt 0.437500 0.930982
vt 0.440733 0.937500
vt 0.500000 0.375000
vn 0.000000 -1.000000 0.000000
vn 0.000000 -1.000000 0.000000
vn 0.000000 -1.000000 0.000000
vn 0.000000 -1.000000 0.000000
vn 0.000000 1.000000 0.000000
vn 0.000000 1.000000 0.000000
vn 0.000000 1.000000 0.000000
vn 0.000000 1.000000 0.000000
vn 1.000000 0.000000 0.000000
vn 1.000000 0.000000 0.000000
vn 1.000000 0.000000 0.000000
vn 1.000000 0.000000 0.000000
vn -1.000000 0.000000 0.000000
vn -1.000000 0.000000 0.000000
vn -1.000000 0.000000 0.000000
vn -1.000000 0.000000 0.000000
vn -0.707108 -0.707106 0.000000
vn -0.707108 -0.707106 0.000000
vn -0.707108 -0.707106 0.000000
vn -0.707108 -0.707106 0.000000
vn 0.707108 -0.707106 0.000000
vn 0.707108 -0.707106 0.000000
vn 0.707108 -0.707106 0.000000
vn 0.707108 -0.707106 0.000000
vn -0.707108 0.707106 0.000000
vn -0.707108 0.707106 0.000000
vn -0.707108 0.707106 0.000000
vn -0.707108 0.707106 0.000000
vn 0.707108 0.707106 0.000000
vn 0.707108 0.707106 0.000000
vn 0.707108 0.707106 0.000000
vn 0.707108 0.707106 0.000000
vn -0.000000 0.000000 -1.000000
vn -0.000000 0.000000 -1.000000
vn -0.000000 0.000000 -1.000000
vn -0.000000 0.000000 -1.000000
vn -0.000001 0.000000 -1.000000
vn -0.000001 0.000000 -1.000000
vn -0.000001 0.000000 -1.000000
vn -0.000001 0.000000 -1.000000
vn 0.000000 0.000000 -1.000000
vn 0.000000 0.000000 -1.000000
vn 0.000000 0.000000 -1.000000
vn 0.000000 0.000000 -1.000000
vn 0.000001 0.000000 -1.000000
vn 0.000001 0.000000 -1.000000
vn 0.000001 0.000000 -1.000000
vn 0.000001 0.000000 -1.000000
vn 0.000000 0.000000 -1.000000
vn 0.000000 0.000000 -1.000000
vn 0.000000 0.000000 -1.000000
vn 0.000000 0.000000 -1.000000
vn 0.000001 0.000000 -1.000000
vn 0.000001 0.000000 -1.000000
vn 0.000001 0.000000 -1.000000
vn 0.000001 0.000000 -1.000000
vn 0.000000 0.000000 -1.000000
vn 0.000000 0.000000 -1.000000
vn 0.000000 0.000000 -1.000000
vn 0.000000 0.000000 -1.000000
vn -0.000001 0.000000 -1.000000
vn -0.000001 0.000000 -1.000000
vn -0.000001 0.000000 -1.000000
vn -0.000001 0.000000 -1.000000
vn 0.000000 0.000000 -1.000000
vn 0.000000 0.000000 -1.000000
vn 0.000000 0.000000 -1.000000
vn 0.000000 0.000000 -1.000000
vn 0.000000 0.000000 -1.000000
vn 0.000000 0.000000 -1.000000
vn 0.000000 0.000000 -1.000000
vn 0.000000 0.000000 -1.000000
vn 0.000000 0.000000 -1.000000
vn -0.000000 0.000000 -1.000000
vn -0.000000 0.000000 -1.000000
vn -0.000000 0.000000 -1.000000
vn 0.000000 0.000000 -1.000000
vn 0.000000 0.000000 -1.000000
vn 0.000000 0.000000 -1.000000
vn -0.000000 0.000000 -1.000000
vn -0.000000 0.000000 -1.000000
vn -0.000000 0.000000 -1.000000
vn 0.000000 0.000000 -1.000000
vn 0.000000 0.000000 -1.000000
vn 0.000000 0.000000 -1.000000
vn 0.000000 0.000000 -1.000000
vn 0.000000 0.000000 -1.000000
vn 0.000000 0.000000 -1.000000
vn -0.707108 0.707106 0.000000
vn -0.707108 0.707106 0.000000
vn -0.707108 0.707106 0.000000
vn -0.707108 0.707106 0.000000
vn 0.463543 0.886074 0.000000
vn 0.463543 0.886074 0.000000
vn 0.463543 0.886074 0.000000
vn 0.463543 0.886074 0.000000
vn 0.707105 -0.707109 0.000000
vn 0.707105 -0.707109 0.000000
vn 0.707105 -0.707109 0.000000
vn 0.707105 -0.707109 0.000000
vn -0.406059 -0.913847 0.000000
vn -0.406059 -0.913847 0.000000
vn -0.406059 -0.913847 0.000000
vn -0.406059 -0.913847 0.000000
vn 0.707108 0.707106 0.000000
vn 0.707108 0.707106 0.000000
vn 0.707108 0.707106 0.000000
vn 0.707108 0.707106 0.000000
vn 0.406059 -0.913847 0.000000
vn 0.406059 -0.913847 0.000000
vn 0.406059 -0.913847 0.000000
vn 0.406059 -0.913847 0.000000
vn -0.707105 -0.707109 0.000000
vn -0.707105 -0.707109 0.000000
vn -0.707105 -0.707109 0.000000
vn -0.707105 -0.707109 0.000000
vn -0.463543 0.886074 0.000000
vn -0.463543 0.886074 0.000000
vn -0.463543 0.886074 0.000000
vn -0.463543 0.886074 0.000000
vn 0.707108 -0.707106 0.000000
vn 0.707108 -0.707106 0.000000
vn 0.707108 -0.707106 0.000000
vn 0.707108 -0.707106 0.000000
vn -0.463543 -0.886074 0.000000
vn -0.463543 -0.886074 0.000000
vn -0.463543 -0.886074 0.000000
vn -0.463543 -0.886074 0.000000
vn -0.707105 0.707109 0.000000
vn -0.707105 0.707109 0.000000
vn -0.707105 0.707109 0.000000
vn -0.707105 0.707109 0.000000
vn 0.406059 0.913847 0.000000
vn 0.406059 0.913847 0.000000
vn 0.406059 0.913847 0.000000
vn 0.406059 0.913847 0.000000
vn -0.707108 -0.707106 0.000000
vn -0.707108 -0.707106 0.000000
vn -0.707108 -0.707106 0.000000
vn -0.707108 -0.707106 0.000000
vn -0.406059 0.913847 0.000000
vn -0.406059 0.913847 0.000000
vn -0.406059 0.913847 0.000000
vn -0.406059 0.913847 0.000000
vn 0.707105 0.707109 0.000000
vn 0.707105 0.707109 0.000000
vn 0.707105 0.707109 0.000000
vn 0.707105 0.707109 0.000000
vn 0.463543 -0.886074 0.000000
vn 0.463543 -0.886074 0.000000
vn 0.463543 -0.886074 0.000000
vn 0.463543 -0.886074 0.000000
vn 0.000000 0.000000 1.000000
vn 0.000000 0.000000 1.000000
vn 0.000000 0.000000 1.000000
vn 0.000000 0.000000 1.000000
vn 0.000000 0.000000 1.000000
vn 0.000000 0.000000 1.000000
vn 0.000000 0.000000 1.000000
vn 0.000000 0.000000 1.000000
vn 0.000000 0.000000 1.000000
vn 0.000000 0.000000 1.000000
vn 0.000000 0.000000 1.000000
vn 0.000000 0.000000 1.000000
vn 0.000000 0.000000 1.000000
vn 0.000000 0.000000 1.000000
vn 0.000000 0.000000 1.000000
vn 0.000000 0.000000 1.000000
vn 0.000000 0.000000 1.000000
vn 0.000000 0.000000 1.000000
vn 0.000000 0.000000 1.000000
vn 0.000000 0.000000 1.000000
vn 0.000000 0.000000 1.000000
vn 0.000000 0.000000 1.000000
vn 0.000000 0.000000 1.000000
vn 0.000000 0.000000 1.000000
s off
g pCube27
usemtl blinn10SG
f 4/9/1 2/19/2 6/10/3 8/22/4
f 12/14/5 10/23/6 13/15/7 16/26/8
f 7/16/9 5/21/10 15/17/11 14/18/12
f 9/11/13 11/12/14 1/13/15 3/20/16
f 1/13/17 2/19/18 4/9/19 3/20/20
f 6/10/21 5/21/22 7/16/23 8/22/24
f 9/3/25 10/23/26 12/14/27 11/24/28
f 13/15/29 14/25/30 15/4/31 16/26/32
f 1/8/33 11/24/34 18/28/35 24/34/36
f 27/36/37 26/37/38 28/38/39 29/39/40
f 12/14/41 16/26/42 19/29/43 17/27/44
f 30/40/45 31/41/46 32/42/47 33/43/48
f 15/4/49 5/5/50 21/31/51 20/30/52
f 34/44/53 35/45/54 36/46/55 37/47/56
f 6/6/57 2/7/58 23/33/59 22/32/60
f 38/48/61 39/49/62 40/50/63 41/51/64
f 24/34/65 18/28/66 25/35/67
f 18/28/68 17/27/69 25/35/70
f 17/27/71 19/29/72 25/35/73
f 19/29/74 20/30/75 25/35/76
f 20/30/77 21/31/78 25/35/79
f 21/31/80 22/32/81 25/35/82
f 22/32/83 23/33/84 25/35/85
f 23/33/86 24/34/87 25/35/88
f 11/24/89 12/14/90 26/37/91 27/36/92
f 12/14/93 17/27/94 28/38/95 26/37/96
f 17/27/97 18/28/98 29/39/99 28/38/100
f 18/28/101 11/24/102 27/36/103 29/39/104
f 16/26/105 15/4/106 31/41/107 30/40/108
f 15/4/109 20/30/110 32/42/111 31/41/112
f 20/30/113 19/29/114 33/43/115 32/42/116
f 19/29/117 16/26/118 30/40/119 33/43/120
f 5/5/121 6/6/122 35/45/123 34/44/124
f 6/6/125 22/32/126 36/46/127 35/45/128
f 22/32/129 21/31/130 37/47/131 36/46/132
f 21/31/133 5/5/134 34/44/135 37/47/136
f 2/7/137 1/8/138 39/49/139 38/48/140
f 1/8/141 24/34/142 40/50/143 39/49/144
f 24/34/145 23/33/146 41/51/147 40/50/148
f 23/33/149 2/7/150 38/48/151 41/51/152
f 3/1/153 4/9/154 42/52/155
f 4/9/156 8/22/157 42/52/158
f 8/22/159 7/2/160 42/52/161
f 7/2/162 14/25/163 42/52/164
f 14/25/165 13/15/166 42/52/167
f 13/15/168 10/23/169 42/52/170
f 10/23/171 9/3/172 42/52/173
f 9/3/174 3/1/175 42/52/176
