# This file uses centimeters as units for non-parametric coordinates.

mtllib PicketFence.mtl
g default
v -0.237522 0.000000 9.149223
v 0.237522 0.000000 9.149223
v -0.237522 8.413210 9.149223
v 0.237522 8.413210 9.149223
v -0.237522 8.413210 8.149223
v 0.237522 8.413210 8.149223
v -0.237522 0.000000 8.149223
v 0.237522 0.000000 8.149223
v -0.237522 0.000000 6.996570
v 0.237522 0.000000 6.996570
v -0.237522 8.413210 6.996570
v 0.237522 8.413210 6.996570
v -0.237522 8.413210 5.996570
v 0.237522 8.413210 5.996570
v -0.237522 0.000000 5.996570
v 0.237522 0.000000 5.996570
v -0.237522 0.000000 4.843915
v 0.237522 0.000000 4.843915
v -0.237522 8.413210 4.843915
v 0.237522 8.413210 4.843915
v -0.237522 8.413210 3.843915
v 0.237522 8.413210 3.843915
v -0.237522 0.000000 3.843915
v 0.237522 0.000000 3.843915
v -0.237522 0.000000 2.691261
v 0.237522 0.000000 2.691261
v -0.237522 8.413210 2.691261
v 0.237522 8.413210 2.691261
v -0.237522 8.413210 1.691261
v 0.237522 8.413210 1.691261
v -0.237522 0.000000 1.691261
v 0.237522 0.000000 1.691261
v -0.237522 0.000000 0.538607
v 0.237522 0.000000 0.538607
v -0.237522 8.413210 0.538607
v 0.237522 8.413210 0.538607
v -0.237522 8.413210 -0.461393
v 0.237522 8.413210 -0.461393
v -0.237522 0.000000 -0.461393
v 0.237522 0.000000 -0.461393
v -0.237522 0.000000 -1.614048
v 0.237522 0.000000 -1.614048
v -0.237522 8.413210 -1.614048
v 0.237522 8.413210 -1.614048
v -0.237522 8.413210 -2.614048
v 0.237522 8.413210 -2.614048
v -0.237522 0.000000 -2.614048
v 0.237522 0.000000 -2.614048
v -0.237522 0.000000 -3.766702
v 0.237522 0.000000 -3.766702
v -0.237522 8.413210 -3.766702
v 0.237522 8.413210 -3.766702
v -0.237522 8.413210 -4.766702
v 0.237522 8.413210 -4.766702
v -0.237522 0.000000 -4.766702
v 0.237522 0.000000 -4.766702
v -0.237522 0.000000 -5.919356
v 0.237522 0.000000 -5.919356
v -0.237522 8.413210 -5.919356
v 0.237522 8.413210 -5.919356
v -0.237522 8.413210 -6.919356
v 0.237522 8.413210 -6.919356
v -0.237522 0.000000 -6.919356
v 0.237522 0.000000 -6.919356
v -0.237522 0.000000 -8.072010
v 0.237522 0.000000 -8.072010
v -0.237522 8.413210 -8.072010
v 0.237522 8.413210 -8.072010
v -0.237522 8.413210 -9.072010
v 0.237522 8.413210 -9.072010
v -0.237522 0.000000 -9.072010
v 0.237522 0.000000 -9.072010
v -0.712566 5.807676 -9.845102
v -0.237522 5.807676 -9.845102
v -0.712566 5.807676 9.845102
v -0.237522 5.807676 9.845102
v -0.712566 6.547138 9.845102
v -0.237522 6.547138 9.845102
v -0.712566 6.547138 -9.845102
v -0.237522 6.547138 -9.845102
v -0.712566 1.865605 -9.845102
v -0.237522 1.865605 -9.845102
v -0.712566 1.865605 9.845102
v -0.237522 1.865605 9.845102
v -0.712566 2.605067 9.845102
v -0.237522 2.605067 9.845102
v -0.712566 2.605067 -9.845102
v -0.237522 2.605067 -9.845102
v -0.237522 8.567781 8.970980
v 0.237522 8.567781 8.970980
v 0.237522 8.567781 8.327467
v -0.237522 8.567781 8.327467
v -0.237522 8.567781 6.818326
v 0.237522 8.567781 6.818326
v 0.237522 8.567781 6.174814
v -0.237522 8.567781 6.174814
v -0.237522 8.567781 4.665671
v 0.237522 8.567781 4.665671
v 0.237522 8.567781 4.022160
v -0.237522 8.567781 4.022160
v -0.237522 8.567781 2.513017
v 0.237522 8.567781 2.513017
v 0.237522 8.567781 1.869505
v -0.237522 8.567781 1.869505
v -0.237522 8.567781 0.360362
v 0.237522 8.567781 0.360362
v 0.237522 8.567781 -0.283149
v -0.237522 8.567781 -0.283149
v -0.237522 8.567781 -1.792292
v 0.237522 8.567781 -1.792292
v 0.237522 8.567781 -2.435804
v -0.237522 8.567781 -2.435804
v -0.237522 8.567781 -3.944947
v 0.237522 8.567781 -3.944947
v 0.237522 8.567781 -4.588458
v -0.237522 8.567781 -4.588458
v -0.237522 8.567781 -6.097601
v 0.237522 8.567781 -6.097601
v 0.237522 8.567781 -6.741113
v -0.237522 8.567781 -6.741113
v -0.237522 8.567781 -8.250254
v 0.237522 8.567781 -8.250254
v 0.237522 8.567781 -8.893766
v -0.237522 8.567781 -8.893766
vt 0.665973 0.048399
vt 0.681809 0.048399
vt 0.461734 0.065847
vt 0.485037 0.065847
vt 0.461734 0.105713
vt 0.485037 0.105713
vt 0.949954 0.686607
vt 0.965789 0.686607
vt 0.949953 0.724231
vt 0.965789 0.724231
vt 0.714282 0.048399
vt 0.714282 0.323375
vt 0.633500 0.048399
vt 0.633500 0.323374
vt 0.318634 0.692551
vt 0.334470 0.692551
vt 0.543592 0.065847
vt 0.520289 0.065847
vt 0.543592 0.105713
vt 0.520289 0.105713
vt 0.987867 0.686607
vt 0.972032 0.686607
vt 0.987867 0.724231
vt 0.972031 0.724231
vt 0.366943 0.692551
vt 0.366943 0.967526
vt 0.286161 0.692551
vt 0.286161 0.967526
vt 0.405424 0.692551
vt 0.421260 0.692551
vt 0.456240 0.065847
vt 0.432937 0.065847
vt 0.456240 0.105713
vt 0.432937 0.105713
vt 0.048548 0.618087
vt 0.032712 0.618087
vt 0.048548 0.655711
vt 0.032712 0.655711
vt 0.453733 0.692551
vt 0.453733 0.967526
vt 0.372951 0.692551
vt 0.372951 0.967526
vt 0.920079 0.048399
vt 0.935915 0.048399
vt 0.427442 0.065847
vt 0.404139 0.065847
vt 0.427442 0.105713
vt 0.404139 0.105713
vt 0.070625 0.618087
vt 0.054790 0.618087
vt 0.070625 0.655711
vt 0.054790 0.655711
vt 0.968388 0.048399
vt 0.968388 0.323375
vt 0.887606 0.048399
vt 0.887606 0.323374
vt 0.233634 0.692551
vt 0.249470 0.692551
vt 0.397685 0.065847
vt 0.374382 0.065847
vt 0.397685 0.105713
vt 0.374382 0.105713
vt 0.093663 0.618087
vt 0.077828 0.618087
vt 0.093663 0.655711
vt 0.077828 0.655711
vt 0.281943 0.692551
vt 0.281943 0.967526
vt 0.201161 0.692551
vt 0.201161 0.967526
vt 0.147739 0.692551
vt 0.163575 0.692551
vt 0.513834 0.065847
vt 0.490531 0.065847
vt 0.513834 0.105713
vt 0.490531 0.105713
vt 0.114781 0.618087
vt 0.098946 0.618087
vt 0.114781 0.655711
vt 0.098946 0.655711
vt 0.196048 0.692551
vt 0.196048 0.967526
vt 0.115266 0.692551
vt 0.115266 0.967526
vt 0.061844 0.692551
vt 0.077680 0.692551
vt 0.367928 0.065847
vt 0.344625 0.065847
vt 0.367928 0.105713
vt 0.344625 0.105713
vt 0.895716 0.686607
vt 0.879880 0.686607
vt 0.895715 0.724231
vt 0.879880 0.724231
vt 0.110153 0.692551
vt 0.110153 0.967526
vt 0.029371 0.692551
vt 0.029371 0.967526
vt 0.750079 0.048399
vt 0.765914 0.048399
vt 0.338171 0.065847
vt 0.314867 0.065847
vt 0.338171 0.105713
vt 0.314867 0.105713
vt 0.943711 0.686607
vt 0.927876 0.686607
vt 0.943711 0.724231
vt 0.927876 0.724231
vt 0.798387 0.048399
vt 0.798388 0.323375
vt 0.717606 0.048399
vt 0.717606 0.323374
vt 0.835958 0.048399
vt 0.851794 0.048399
vt 0.571429 0.065847
vt 0.548126 0.065847
vt 0.571429 0.105713
vt 0.548126 0.105713
vt 0.918832 0.686607
vt 0.902997 0.686607
vt 0.918832 0.724231
vt 0.902997 0.724231
vt 0.884267 0.048399
vt 0.884267 0.323375
vt 0.803485 0.048399
vt 0.803485 0.323374
vt 0.900357 0.950770
vt 0.891505 0.959622
vt 0.395416 0.463532
vt 0.404267 0.454681
vt 0.373082 0.441199
vt 0.381934 0.432347
vt 0.063465 0.131582
vt 0.072316 0.122730
vt 0.048848 0.116964
vt 0.057699 0.108113
vt 0.872463 0.978664
vt 0.376373 0.482574
vt 0.919399 0.931728
vt 0.423310 0.435638
vt 0.106848 0.059930
vt 0.115699 0.051078
vt 0.611789 0.547168
vt 0.602937 0.556019
vt 0.634122 0.569501
vt 0.625271 0.578353
vt 0.943739 0.879118
vt 0.934888 0.887970
vt 0.958357 0.893736
vt 0.949505 0.902587
vt 0.134741 0.032036
vt 0.630831 0.528125
vt 0.087805 0.078972
vt 0.583895 0.575062
vt 0.465725 0.076113
vt 0.481561 0.076105
vt 0.481561 0.095370
vt 0.465725 0.095378
vt 0.524280 0.076113
vt 0.540116 0.076105
vt 0.540116 0.095370
vt 0.524280 0.095378
vt 0.436928 0.076113
vt 0.452763 0.076105
vt 0.452764 0.095370
vt 0.436928 0.095378
vt 0.408131 0.076113
vt 0.423966 0.076105
vt 0.423966 0.095370
vt 0.408131 0.095378
vt 0.378373 0.076113
vt 0.394209 0.076105
vt 0.394209 0.095370
vt 0.378373 0.095378
vt 0.494523 0.076113
vt 0.510358 0.076105
vt 0.510358 0.095370
vt 0.494523 0.095378
vt 0.348616 0.076113
vt 0.364452 0.076105
vt 0.364452 0.095370
vt 0.348616 0.095378
vt 0.318859 0.076113
vt 0.334694 0.076105
vt 0.334694 0.095370
vt 0.318859 0.095378
vt 0.552117 0.076113
vt 0.567953 0.076105
vt 0.567953 0.095370
vt 0.552117 0.095378
vt 0.851794 0.323374
vt 0.918832 0.403530
vt 0.835958 0.323375
vt 0.902997 0.403529
vt 0.765914 0.323374
vt 0.943711 0.403530
vt 0.750079 0.323375
vt 0.927876 0.403529
vt 0.077680 0.967526
vt 0.895715 0.403530
vt 0.061844 0.967526
vt 0.879880 0.403529
vt 0.163575 0.967526
vt 0.114781 0.335009
vt 0.147739 0.967526
vt 0.098946 0.335009
vt 0.249470 0.967526
vt 0.093663 0.335009
vt 0.233634 0.967526
vt 0.077828 0.335009
vt 0.935915 0.323374
vt 0.070625 0.335009
vt 0.920079 0.323375
vt 0.054790 0.335009
vt 0.421260 0.967526
vt 0.048548 0.335009
vt 0.405424 0.967526
vt 0.032712 0.335009
vt 0.334470 0.967526
vt 0.987867 0.403530
vt 0.318634 0.967526
vt 0.972031 0.403529
vt 0.681809 0.323374
vt 0.965789 0.403530
vt 0.665973 0.323375
vt 0.949953 0.403529
vn 0.000000 0.000000 1.000000
vn 0.000000 0.000000 1.000000
vn 0.000000 0.000000 1.000000
vn 0.000000 0.000000 1.000000
vn 0.000000 1.000000 0.000000
vn 0.000000 1.000000 0.000000
vn 0.000000 1.000000 0.000000
vn 0.000000 1.000000 0.000000
vn 0.000000 0.000000 -1.000000
vn 0.000000 0.000000 -1.000000
vn 0.000000 0.000000 -1.000000
vn 0.000000 0.000000 -1.000000
vn 0.000000 -1.000000 0.000000
vn 0.000000 -1.000000 0.000000
vn 0.000000 -1.000000 0.000000
vn 0.000000 -1.000000 0.000000
vn 1.000000 0.000000 0.000000
vn 1.000000 0.000000 0.000000
vn 1.000000 0.000000 0.000000
vn 1.000000 0.000000 0.000000
vn -1.000000 0.000000 0.000000
vn -1.000000 0.000000 0.000000
vn -1.000000 0.000000 0.000000
vn -1.000000 0.000000 0.000000
vn 0.000000 0.000000 1.000000
vn 0.000000 0.000000 1.000000
vn 0.000000 0.000000 1.000000
vn 0.000000 0.000000 1.000000
vn 0.000000 1.000000 0.000000
vn 0.000000 1.000000 0.000000
vn 0.000000 1.000000 0.000000
vn 0.000000 1.000000 0.000000
vn 0.000000 0.000000 -1.000000
vn 0.000000 0.000000 -1.000000
vn 0.000000 0.000000 -1.000000
vn 0.000000 0.000000 -1.000000
vn 0.000000 -1.000000 0.000000
vn 0.000000 -1.000000 0.000000
vn 0.000000 -1.000000 0.000000
vn 0.000000 -1.000000 0.000000
vn 1.000000 0.000000 0.000000
vn 1.000000 0.000000 0.000000
vn 1.000000 0.000000 0.000000
vn 1.000000 0.000000 0.000000
vn -1.000000 0.000000 0.000000
vn -1.000000 0.000000 0.000000
vn -1.000000 -0.000000 0.000000
vn -1.000000 -0.000000 0.000000
vn 0.000000 0.000000 1.000000
vn 0.000000 0.000000 1.000000
vn 0.000000 0.000000 1.000000
vn 0.000000 0.000000 1.000000
vn 0.000000 1.000000 0.000000
vn 0.000000 1.000000 0.000000
vn 0.000000 1.000000 0.000000
vn 0.000000 1.000000 0.000000
vn 0.000000 0.000000 -1.000000
vn 0.000000 0.000000 -1.000000
vn 0.000000 0.000000 -1.000000
vn 0.000000 0.000000 -1.000000
vn 0.000000 -1.000000 0.000000
vn 0.000000 -1.000000 0.000000
vn 0.000000 -1.000000 0.000000
vn 0.000000 -1.000000 0.000000
vn 1.000000 0.000000 0.000000
vn 1.000000 0.000000 0.000000
vn 1.000000 -0.000000 0.000000
vn 1.000000 -0.000000 0.000000
vn -1.000000 0.000000 0.000000
vn -1.000000 0.000000 0.000000
vn -1.000000 -0.000000 0.000000
vn -1.000000 -0.000000 0.000000
vn 0.000000 0.000000 1.000000
vn 0.000000 0.000000 1.000000
vn 0.000000 0.000000 1.000000
vn 0.000000 0.000000 1.000000
vn 0.000000 1.000000 0.000000
vn 0.000000 1.000000 0.000000
vn 0.000000 1.000000 0.000000
vn 0.000000 1.000000 0.000000
vn 0.000000 0.000000 -1.000000
vn 0.000000 0.000000 -1.000000
vn 0.000000 0.000000 -1.000000
vn 0.000000 0.000000 -1.000000
vn 0.000000 -1.000000 0.000000
vn 0.000000 -1.000000 0.000000
vn 0.000000 -1.000000 0.000000
vn 0.000000 -1.000000 0.000000
vn 1.000000 0.000000 0.000000
vn 1.000000 0.000000 0.000000
vn 1.000000 -0.000000 0.000000
vn 1.000000 -0.000000 0.000000
vn -1.000000 0.000000 0.000000
vn -1.000000 0.000000 0.000000
vn -1.000000 -0.000000 0.000000
vn -1.000000 -0.000000 0.000000
vn 0.000000 0.000000 1.000000
vn 0.000000 0.000000 1.000000
vn 0.000000 0.000000 1.000000
vn 0.000000 0.000000 1.000000
vn 0.000000 1.000000 0.000000
vn 0.000000 1.000000 0.000000
vn 0.000000 1.000000 0.000000
vn 0.000000 1.000000 0.000000
vn 0.000000 0.000000 -1.000000
vn 0.000000 0.000000 -1.000000
vn 0.000000 0.000000 -1.000000
vn 0.000000 0.000000 -1.000000
vn 0.000000 -1.000000 0.000000
vn 0.000000 -1.000000 0.000000
vn 0.000000 -1.000000 0.000000
vn 0.000000 -1.000000 0.000000
vn 1.000000 0.000000 0.000000
vn 1.000000 0.000000 0.000000
vn 1.000000 0.000000 0.000000
vn 1.000000 0.000000 0.000000
vn -1.000000 0.000000 0.000000
vn -1.000000 0.000000 0.000000
vn -1.000000 0.000000 0.000000
vn -1.000000 0.000000 0.000000
vn 0.000000 0.000000 1.000000
vn 0.000000 0.000000 1.000000
vn 0.000000 0.000000 1.000000
vn 0.000000 0.000000 1.000000
vn 0.000000 1.000000 0.000000
vn 0.000000 1.000000 0.000000
vn 0.000000 1.000000 0.000000
vn 0.000000 1.000000 0.000000
vn 0.000000 0.000000 -1.000000
vn 0.000000 0.000000 -1.000000
vn 0.000000 0.000000 -1.000000
vn 0.000000 0.000000 -1.000000
vn 0.000000 -1.000000 0.000000
vn 0.000000 -1.000000 0.000000
vn 0.000000 -1.000000 0.000000
vn 0.000000 -1.000000 0.000000
vn 1.000000 0.000000 0.000000
vn 1.000000 0.000000 0.000000
vn 1.000000 -0.000000 0.000000
vn 1.000000 -0.000000 0.000000
vn -1.000000 0.000000 0.000000
vn -1.000000 0.000000 0.000000
vn -1.000000 -0.000000 0.000000
vn -1.000000 -0.000000 0.000000
vn 0.000000 0.000000 1.000000
vn 0.000000 0.000000 1.000000
vn 0.000000 0.000000 1.000000
vn 0.000000 0.000000 1.000000
vn 0.000000 1.000000 0.000000
vn 0.000000 1.000000 0.000000
vn 0.000000 1.000000 0.000000
vn 0.000000 1.000000 0.000000
vn 0.000000 0.000000 -1.000000
vn 0.000000 0.000000 -1.000000
vn 0.000000 0.000000 -1.000000
vn 0.000000 0.000000 -1.000000
vn 0.000000 -1.000000 0.000000
vn 0.000000 -1.000000 0.000000
vn 0.000000 -1.000000 0.000000
vn 0.000000 -1.000000 0.000000
vn 1.000000 0.000000 0.000000
vn 1.000000 0.000000 0.000000
vn 1.000000 -0.000000 0.000000
vn 1.000000 -0.000000 0.000000
vn -1.000000 0.000000 0.000000
vn -1.000000 0.000000 0.000000
vn -1.000000 -0.000000 0.000000
vn -1.000000 -0.000000 0.000000
vn 0.000000 0.000000 1.000000
vn 0.000000 0.000000 1.000000
vn 0.000000 0.000000 1.000000
vn 0.000000 0.000000 1.000000
vn 0.000000 1.000000 0.000000
vn 0.000000 1.000000 0.000000
vn 0.000000 1.000000 0.000000
vn 0.000000 1.000000 0.000000
vn 0.000000 0.000000 -1.000000
vn 0.000000 0.000000 -1.000000
vn 0.000000 0.000000 -1.000000
vn 0.000000 0.000000 -1.000000
vn 0.000000 -1.000000 0.000000
vn 0.000000 -1.000000 0.000000
vn 0.000000 -1.000000 0.000000
vn 0.000000 -1.000000 0.000000
vn 1.000000 0.000000 0.000000
vn 1.000000 0.000000 0.000000
vn 1.000000 -0.000000 0.000000
vn 1.000000 -0.000000 0.000000
vn -1.000000 0.000000 0.000000
vn -1.000000 0.000000 0.000000
vn -1.000000 0.000000 0.000000
vn -1.000000 0.000000 0.000000
vn 0.000000 0.000000 1.000000
vn 0.000000 0.000000 1.000000
vn 0.000000 0.000000 1.000000
vn 0.000000 0.000000 1.000000
vn 0.000000 1.000000 0.000000
vn 0.000000 1.000000 0.000000
vn 0.000000 1.000000 0.000000
vn 0.000000 1.000000 0.000000
vn 0.000000 0.000000 -1.000000
vn 0.000000 0.000000 -1.000000
vn 0.000000 0.000000 -1.000000
vn 0.000000 0.000000 -1.000000
vn 0.000000 -1.000000 0.000000
vn 0.000000 -1.000000 0.000000
vn 0.000000 -1.000000 0.000000
vn 0.000000 -1.000000 0.000000
vn 1.000000 0.000000 0.000000
vn 1.000000 0.000000 0.000000
vn 1.000000 0.000000 0.000000
vn 1.000000 0.000000 0.000000
vn -1.000000 0.000000 0.000000
vn -1.000000 0.000000 0.000000
vn -1.000000 0.000000 0.000000
vn -1.000000 0.000000 0.000000
vn 0.000000 -1.000000 0.000000
vn 0.000000 -1.000000 0.000000
vn 0.000000 -1.000000 0.000000
vn 0.000000 -1.000000 0.000000
vn 0.000000 0.000000 1.000000
vn 0.000000 0.000000 1.000000
vn 0.000000 0.000000 1.000000
vn 0.000000 0.000000 1.000000
vn 0.000000 1.000000 0.000000
vn 0.000000 1.000000 0.000000
vn 0.000000 1.000000 0.000000
vn 0.000000 1.000000 0.000000
vn 0.000000 0.000000 -1.000000
vn 0.000000 0.000000 -1.000000
vn 0.000000 0.000000 -1.000000
vn 0.000000 0.000000 -1.000000
vn 1.000000 0.000000 0.000000
vn 1.000000 0.000000 0.000000
vn 1.000000 0.000000 0.000000
vn 1.000000 0.000000 0.000000
vn -1.000000 0.000000 0.000000
vn -1.000000 0.000000 0.000000
vn -1.000000 0.000000 0.000000
vn -1.000000 0.000000 0.000000
vn 0.000000 -1.000000 0.000000
vn 0.000000 -1.000000 0.000000
vn 0.000000 -1.000000 0.000000
vn 0.000000 -1.000000 0.000000
vn 0.000000 0.000000 1.000000
vn 0.000000 0.000000 1.000000
vn 0.000000 0.000000 1.000000
vn 0.000000 0.000000 1.000000
vn 0.000000 1.000000 0.000000
vn 0.000000 1.000000 0.000000
vn 0.000000 1.000000 0.000000
vn 0.000000 1.000000 0.000000
vn 0.000000 0.000000 -1.000000
vn 0.000000 0.000000 -1.000000
vn 0.000000 0.000000 -1.000000
vn 0.000000 0.000000 -1.000000
vn 1.000000 0.000000 0.000000
vn 1.000000 0.000000 0.000000
vn 1.000000 0.000000 0.000000
vn 1.000000 0.000000 0.000000
vn -1.000000 0.000000 0.000000
vn -1.000000 0.000000 0.000000
vn -1.000000 0.000000 0.000000
vn -1.000000 0.000000 0.000000
vn 0.000000 0.755493 0.655157
vn 0.000000 0.755493 0.655157
vn 0.000000 0.755493 0.655157
vn 0.000000 0.755493 0.655157
vn 1.000000 0.000000 0.000000
vn 1.000000 0.000000 0.000000
vn 0.000000 0.755493 -0.655157
vn 0.000000 0.755493 -0.655157
vn 0.000000 0.755493 -0.655157
vn 0.000000 0.755493 -0.655157
vn -1.000000 0.000000 0.000000
vn -1.000000 0.000000 0.000000
vn 0.000000 0.755493 0.655157
vn 0.000000 0.755493 0.655157
vn 0.000000 0.755493 0.655157
vn 0.000000 0.755493 0.655157
vn 1.000000 0.000000 0.000000
vn 1.000000 0.000000 0.000000
vn 0.000000 0.755495 -0.655155
vn 0.000000 0.755495 -0.655155
vn 0.000000 0.755495 -0.655155
vn 0.000000 0.755495 -0.655155
vn -1.000000 -0.000000 0.000000
vn -1.000000 -0.000000 0.000000
vn 0.000000 0.755494 0.655156
vn 0.000000 0.755494 0.655156
vn 0.000000 0.755494 0.655156
vn 0.000000 0.755494 0.655156
vn 1.000000 -0.000000 0.000000
vn 1.000000 -0.000000 0.000000
vn 0.000000 0.755494 -0.655155
vn 0.000000 0.755494 -0.655155
vn 0.000000 0.755494 -0.655155
vn 0.000000 0.755494 -0.655155
vn -1.000000 -0.000000 0.000000
vn -1.000000 -0.000000 0.000000
vn 0.000000 0.755494 0.655156
vn 0.000000 0.755494 0.655156
vn 0.000000 0.755494 0.655156
vn 0.000000 0.755494 0.655156
vn 1.000000 -0.000000 0.000000
vn 1.000000 -0.000000 0.000000
vn 0.000000 0.755494 -0.655155
vn 0.000000 0.755494 -0.655155
vn 0.000000 0.755494 -0.655155
vn 0.000000 0.755494 -0.655155
vn -1.000000 -0.000000 0.000000
vn -1.000000 -0.000000 0.000000
vn 0.000000 0.755494 0.655155
vn 0.000000 0.755494 0.655155
vn 0.000000 0.755494 0.655155
vn 0.000000 0.755494 0.655155
vn 1.000000 0.000000 0.000000
vn 1.000000 0.000000 0.000000
vn 0.000000 0.755494 -0.655155
vn 0.000000 0.755494 -0.655155
vn 0.000000 0.755494 -0.655155
vn 0.000000 0.755494 -0.655155
vn -1.000000 0.000000 0.000000
vn -1.000000 0.000000 0.000000
vn 0.000000 0.755494 0.655155
vn 0.000000 0.755494 0.655155
vn 0.000000 0.755494 0.655155
vn 0.000000 0.755494 0.655155
vn 1.000000 -0.000000 0.000000
vn 1.000000 -0.000000 0.000000
vn 0.000000 0.755494 -0.655156
vn 0.000000 0.755494 -0.655156
vn 0.000000 0.755494 -0.655156
vn 0.000000 0.755494 -0.655156
vn -1.000000 -0.000000 0.000000
vn -1.000000 -0.000000 0.000000
vn 0.000000 0.755495 0.655155
vn 0.000000 0.755495 0.655155
vn 0.000000 0.755495 0.655155
vn 0.000000 0.755495 0.655155
vn 1.000000 -0.000000 0.000000
vn 1.000000 -0.000000 0.000000
vn 0.000000 0.755495 -0.655155
vn 0.000000 0.755495 -0.655155
vn 0.000000 0.755495 -0.655155
vn 0.000000 0.755495 -0.655155
vn -1.000000 -0.000000 0.000000
vn -1.000000 -0.000000 0.000000
vn 0.000000 0.755495 0.655155
vn 0.000000 0.755495 0.655155
vn 0.000000 0.755495 0.655155
vn 0.000000 0.755495 0.655155
vn 1.000000 -0.000000 0.000000
vn 1.000000 -0.000000 0.000000
vn 0.000000 0.755493 -0.655157
vn 0.000000 0.755493 -0.655157
vn 0.000000 0.755493 -0.655157
vn 0.000000 0.755493 -0.655157
vn -1.000000 0.000000 0.000000
vn -1.000000 0.000000 0.000000
vn 0.000000 0.755493 0.655157
vn 0.000000 0.755493 0.655157
vn 0.000000 0.755493 0.655157
vn 0.000000 0.755493 0.655157
vn 1.000000 0.000000 0.000000
vn 1.000000 0.000000 0.000000
vn 0.000000 0.755493 -0.655157
vn 0.000000 0.755493 -0.655157
vn 0.000000 0.755493 -0.655157
vn 0.000000 0.755493 -0.655157
vn -1.000000 0.000000 0.000000
vn -1.000000 0.000000 0.000000
s off
g PicketFence_mesh
usemtl lambert2SG
f 1/1/1 2/2/2 4/223/3 3/225/4
f 89/155/5 90/156/6 91/157/7 92/158/8
f 5/226/9 6/224/10 8/8/11 7/7/12
f 7/7/13 8/8/14 2/10/15 1/9/16
s 1
f 2/2/17 8/11/18 6/12/19 4/223/20
s 2
f 7/13/21 1/1/22 3/225/23 5/14/24
s off
f 9/15/25 10/16/26 12/219/27 11/221/28
f 93/159/29 94/160/30 95/161/31 96/162/32
f 13/222/33 14/220/34 16/21/35 15/22/36
f 15/22/37 16/21/38 10/23/39 9/24/40
s 3
f 10/16/41 16/25/42 14/26/43 12/219/44
s 4
f 15/27/45 9/15/46 11/221/47 13/28/48
s off
f 17/29/49 18/30/50 20/215/51 19/217/52
f 97/163/53 98/164/54 99/165/55 100/166/56
f 21/218/57 22/216/58 24/35/59 23/36/60
f 23/36/61 24/35/62 18/37/63 17/38/64
s 5
f 18/30/65 24/39/66 22/40/67 20/215/68
s 6
f 23/41/69 17/29/70 19/217/71 21/42/72
s off
f 25/43/73 26/44/74 28/211/75 27/213/76
f 101/167/77 102/168/78 103/169/79 104/170/80
f 29/214/81 30/212/82 32/49/83 31/50/84
f 31/50/85 32/49/86 26/51/87 25/52/88
s 7
f 26/44/89 32/53/90 30/54/91 28/211/92
s 8
f 31/55/93 25/43/94 27/213/95 29/56/96
s off
f 33/57/97 34/58/98 36/207/99 35/209/100
f 105/171/101 106/172/102 107/173/103 108/174/104
f 37/210/105 38/208/106 40/63/107 39/64/108
f 39/64/109 40/63/110 34/65/111 33/66/112
s 9
f 34/58/113 40/67/114 38/68/115 36/207/116
s 10
f 39/69/117 33/57/118 35/209/119 37/70/120
s off
f 41/71/121 42/72/122 44/203/123 43/205/124
f 109/175/125 110/176/126 111/177/127 112/178/128
f 45/206/129 46/204/130 48/77/131 47/78/132
f 47/78/133 48/77/134 42/79/135 41/80/136
s 11
f 42/72/137 48/81/138 46/82/139 44/203/140
s 12
f 47/83/141 41/71/142 43/205/143 45/84/144
s off
f 49/85/145 50/86/146 52/199/147 51/201/148
f 113/179/149 114/180/150 115/181/151 116/182/152
f 53/202/153 54/200/154 56/91/155 55/92/156
f 55/92/157 56/91/158 50/93/159 49/94/160
s 13
f 50/86/161 56/95/162 54/96/163 52/199/164
s 14
f 55/97/165 49/85/166 51/201/167 53/98/168
s off
f 57/99/169 58/100/170 60/195/171 59/197/172
f 117/183/173 118/184/174 119/185/175 120/186/176
f 61/198/177 62/196/178 64/105/179 63/106/180
f 63/106/181 64/105/182 58/107/183 57/108/184
s 15
f 58/100/185 64/109/186 62/110/187 60/195/188
s 16
f 63/111/189 57/99/190 59/197/191 61/112/192
s off
f 65/113/193 66/114/194 68/191/195 67/193/196
f 121/187/197 122/188/198 123/189/199 124/190/200
f 69/194/201 70/192/202 72/119/203 71/120/204
f 71/120/205 72/119/206 66/121/207 65/122/208
s 17
f 66/114/209 72/123/210 70/124/211 68/191/212
s 18
f 71/125/213 65/113/214 67/193/215 69/126/216
s off
f 73/127/217 74/128/218 76/129/219 75/130/220
f 75/130/221 76/129/222 78/131/223 77/132/224
f 77/132/225 78/131/226 80/133/227 79/134/228
f 79/134/229 80/133/230 74/135/231 73/136/232
f 74/128/233 80/137/234 78/138/235 76/129/236
f 79/139/237 73/127/238 75/130/239 77/140/240
f 81/141/241 82/142/242 84/143/243 83/144/244
f 83/144/245 84/143/246 86/145/247 85/146/248
f 85/146/249 86/145/250 88/147/251 87/148/252
f 87/148/253 88/147/254 82/149/255 81/150/256
f 82/142/257 88/151/258 86/152/259 84/143/260
f 87/153/261 81/141/262 83/144/263 85/154/264
f 3/3/265 4/4/266 90/156/267 89/155/268
s 1
f 4/4/20 6/6/19 91/157/269 90/156/270
s off
f 6/6/271 5/5/272 92/158/273 91/157/274
s 2
f 5/5/24 3/3/23 89/155/275 92/158/276
s off
f 11/18/277 12/17/278 94/160/279 93/159/280
s 3
f 12/17/44 14/19/43 95/161/281 94/160/282
s off
f 14/19/283 13/20/284 96/162/285 95/161/286
s 4
f 13/20/48 11/18/47 93/159/287 96/162/288
s off
f 19/32/289 20/31/290 98/164/291 97/163/292
s 5
f 20/31/68 22/33/67 99/165/293 98/164/294
s off
f 22/33/295 21/34/296 100/166/297 99/165/298
s 6
f 21/34/72 19/32/71 97/163/299 100/166/300
s off
f 27/46/301 28/45/302 102/168/303 101/167/304
s 7
f 28/45/92 30/47/91 103/169/305 102/168/306
s off
f 30/47/307 29/48/308 104/170/309 103/169/310
s 8
f 29/48/96 27/46/95 101/167/311 104/170/312
s off
f 35/60/313 36/59/314 106/172/315 105/171/316
s 9
f 36/59/116 38/61/115 107/173/317 106/172/318
s off
f 38/61/319 37/62/320 108/174/321 107/173/322
s 10
f 37/62/120 35/60/119 105/171/323 108/174/324
s off
f 43/74/325 44/73/326 110/176/327 109/175/328
s 11
f 44/73/140 46/75/139 111/177/329 110/176/330
s off
f 46/75/331 45/76/332 112/178/333 111/177/334
s 12
f 45/76/144 43/74/143 109/175/335 112/178/336
s off
f 51/88/337 52/87/338 114/180/339 113/179/340
s 13
f 52/87/164 54/89/163 115/181/341 114/180/342
s off
f 54/89/343 53/90/344 116/182/345 115/181/346
s 14
f 53/90/168 51/88/167 113/179/347 116/182/348
s off
f 59/102/349 60/101/350 118/184/351 117/183/352
s 15
f 60/101/188 62/103/187 119/185/353 118/184/354
s off
f 62/103/355 61/104/356 120/186/357 119/185/358
s 16
f 61/104/192 59/102/191 117/183/359 120/186/360
s off
f 67/116/361 68/115/362 122/188/363 121/187/364
s 17
f 68/115/212 70/117/211 123/189/365 122/188/366
s off
f 70/117/367 69/118/368 124/190/369 123/189/370
s 18
f 69/118/216 67/116/215 121/187/371 124/190/372
